<?xml version="1.0" encoding="utf-8"?><svg viewBox="0 0 42 42" xmlns="http://www.w3.org/2000/svg" xmlns:xlink="http://www.w3.org/1999/xlink"><style>:root>svg{display:none}:root>svg:target{display:block}</style><svg fill="none" viewBox="0 0 42 42" id="24" xmlns="http://www.w3.org/2000/svg"><path fill-rule="evenodd" clip-rule="evenodd" d="M21.031 3.505a17.138 17.138 0 1 0 16.744 17.133h3.5a20.638 20.638 0 1 1-7.4-15.834l3.461-2.82-.673 8.148-8.116-.987 2.553-2.08a17.138 17.138 0 0 0-10.069-3.56Zm-1.913 20.453h-4.06c1.493-1.734 2.5-3.074 3.02-4.02.52-.947.78-1.847.78-2.7 0-.8-.187-1.52-.56-2.16a3.766 3.766 0 0 0-1.58-1.48c-.68-.36-1.447-.54-2.3-.54-1.32 0-2.38.393-3.18 1.18-.8.786-1.2 1.8-1.2 3.04v.28h2.86v-.24c0-.48.14-.86.42-1.14.293-.294.673-.44 1.14-.44.453 0 .82.14 1.1.42.28.28.42.653.42 1.12 0 .48-.147.993-.44 1.54-.28.546-.834 1.333-1.66 2.36-.814 1.013-2.174 2.626-4.08 4.84v.62h9.32v-2.68Zm11.537.12v-2.48h-1.16v-3.18h-2.14l-.46 3.18h-2.8l3.54-8.26h-2.82l-4.38 10.24v.5h6.38v2.56h2.68v-2.56h1.16Z" fill="#FBDAA8"/></svg><svg fill="none" viewBox="0 0 33 33" id="instagr" xmlns="http://www.w3.org/2000/svg"><path d="M16.5 9.625a6.875 6.875 0 1 0 0 13.75 6.875 6.875 0 0 0 0-13.75Zm0 11a4.125 4.125 0 1 1 0-8.25 4.125 4.125 0 0 1 0 8.25ZM23.375 8.25a1.375 1.375 0 1 0 0 2.75 1.375 1.375 0 0 0 0-2.75Zm6.793 3.08a10.327 10.327 0 0 0-.66-3.438 7.645 7.645 0 0 0-4.4-4.4 10.326 10.326 0 0 0-3.438-.66c-1.334-.082-1.774-.082-5.17-.082s-3.836 0-5.17.083a10.327 10.327 0 0 0-3.438.66 7.645 7.645 0 0 0-4.4 4.4 10.327 10.327 0 0 0-.66 3.437c-.082 1.348-.082 1.787-.082 5.17s0 3.823.083 5.17c.022 1.175.245 2.338.66 3.438a7.645 7.645 0 0 0 4.4 4.4c1.1.414 2.262.637 3.437.66 1.375 0 1.774.082 5.17.082s3.836 0 5.17-.082a10.327 10.327 0 0 0 3.438-.66 7.645 7.645 0 0 0 4.4-4.4c.414-1.1.637-2.263.66-3.438 0-1.375.082-1.788.082-5.17 0-3.383 0-3.822-.082-5.17Zm-2.75 10.216a8.25 8.25 0 0 1-.482 2.558 4.677 4.677 0 0 1-1.127 1.719c-.48.498-1.068.88-1.719 1.113a7.91 7.91 0 0 1-2.571.495c-1.293 0-1.691.069-5.033.069h-5.019a8.247 8.247 0 0 1-2.57-.481 4.675 4.675 0 0 1-1.72-1.128 4.483 4.483 0 0 1-1.113-1.718 7.893 7.893 0 0 1-.495-2.558V11.523c.023-.879.19-1.747.495-2.572a4.538 4.538 0 0 1 1.114-1.705 4.483 4.483 0 0 1 1.718-1.114 7.906 7.906 0 0 1 2.571-.494C12.76 5.5 13.16 5.5 16.5 5.5h5.032c.883.022 1.757.19 2.585.495a4.537 4.537 0 0 1 1.706 1.114c.498.479.88 1.067 1.113 1.719.337.836.527 1.725.564 2.626 0 1.375.069 1.718.069 5.046 0 3.328-.069 3.726-.069 5.046h-.082Z" fill="#FBDAA8"/></svg><svg fill="none" viewBox="0 0 29 29" id="telegram" xmlns="http://www.w3.org/2000/svg"><path d="M14.492.75a13.75 13.75 0 1 0 0 27.5 13.75 13.75 0 0 0 0-27.5Zm4.372 20.835a.969.969 0 0 1-1.378.483l-3.732-2.9-2.396 2.21a.412.412 0 0 1-.392.053l.46-4.109.014.012.01-.081s6.716-6.116 6.99-6.376c.277-.26.185-.316.185-.316.016-.317-.497 0-.497 0l-8.9 5.725-3.706-1.262s-.569-.204-.622-.653c-.057-.446.64-.688.64-.688L20.278 7.83s1.211-.54 1.211.354l-2.624 13.402Z" fill="#FBDAA8"/></svg><svg fill="none" viewBox="0 0 33 33" id="vk" xmlns="http://www.w3.org/2000/svg"><path d="M20.725 2.75H12.29c-7.706 0-9.539 1.833-9.539 9.525v8.436c0 7.706 1.819 9.539 9.525 9.539h8.436c7.706 0 9.539-1.819 9.539-9.525V12.29c0-7.706-1.819-9.539-9.525-9.539Zm4.226 19.622h-2.006c-.759 0-.988-.616-2.349-1.976-1.189-1.146-1.69-1.29-1.99-1.29-.416 0-.53.115-.53.688V21.6c0 .487-.158.773-1.433.773a7.826 7.826 0 0 1-6.116-3.666 15.987 15.987 0 0 1-3.165-6.646c0-.3.115-.573.688-.573h2.005c.515 0 .702.23.902.76.974 2.864 2.635 5.356 3.309 5.356.257 0 .372-.115.372-.76v-2.95c-.086-1.346-.802-1.46-.802-1.948a.495.495 0 0 1 .516-.458h3.15c.43 0 .574.215.574.73V16.2c0 .43.186.573.315.573.257 0 .458-.143.93-.616a16.498 16.498 0 0 0 2.464-4.096.863.863 0 0 1 .874-.573h2.005c.602 0 .73.3.602.73a25.036 25.036 0 0 1-2.693 4.627c-.215.33-.3.501 0 .888.2.3.902.888 1.375 1.446a8.92 8.92 0 0 1 1.69 2.35c.172.558-.115.844-.688.844Z" fill="#FBDAA8"/></svg><svg fill="none" viewBox="0 0 27 27" id="whatsApp" xmlns="http://www.w3.org/2000/svg"><path d="M27 6.143a17.024 17.024 0 0 0-.135-1.742 5.792 5.792 0 0 0-.5-1.458 4.94 4.94 0 0 0-.958-1.35 5.28 5.28 0 0 0-1.35-.959 5.778 5.778 0 0 0-1.458-.486A13.784 13.784 0 0 0 20.871 0H6.143C5.56.015 4.979.06 4.4.135c-.506.1-.996.269-1.458.5-.5.24-.957.565-1.35.958a5.279 5.279 0 0 0-.959 1.35c-.226.462-.39.953-.486 1.458C.063 4.973.013 5.551 0 6.129v14.729c.015.582.06 1.163.135 1.741.1.506.269.996.5 1.458.24.5.565.957.958 1.35a5.28 5.28 0 0 0 1.35.959c.462.226.953.39 1.458.486.572.085 1.15.135 1.728.148h14.729c.582-.015 1.163-.06 1.741-.135.506-.1.996-.269 1.458-.5a4.94 4.94 0 0 0 1.35-.958 5.28 5.28 0 0 0 .959-1.35 5.78 5.78 0 0 0 .486-1.458c.085-.572.135-1.15.148-1.728V6.143ZM13.81 22.95a9.612 9.612 0 0 1-4.63-1.215l-5.13 1.35 1.35-5.022a9.599 9.599 0 0 1-1.35-4.833 9.693 9.693 0 1 1 9.76 9.72Zm0-17.726A8.1 8.1 0 0 0 6.993 17.55l.189.31-.81 2.957 3.078-.837.297.175a8.1 8.1 0 0 0 4.05 1.121 8.1 8.1 0 0 0 0-16.2l.013.149Zm4.725 11.503a2.456 2.456 0 0 1-1.633 1.147 3.145 3.145 0 0 1-1.512-.095 12.02 12.02 0 0 1-1.35-.512 10.8 10.8 0 0 1-4.131-3.646 4.698 4.698 0 0 1-.986-2.497 2.7 2.7 0 0 1 .851-2.025.877.877 0 0 1 .648-.297h.378c.148 0 .351 0 .54.418.189.419.688 1.675.756 1.796a.459.459 0 0 1 0 .418c-.06.147-.142.284-.243.405-.121.149-.256.325-.364.432-.109.108-.244.243-.109.486.368.62.822 1.184 1.35 1.675a6.75 6.75 0 0 0 1.944 1.201c.244.122.392.108.527 0s.607-.702.77-.945c.162-.243.323-.203.54-.122.216.082 1.417.662 1.66.784.243.121.392.175.459.283.059.353.026.716-.095 1.053v.04Z" fill="#FBDAA8"/></svg></svg>