<svg width="53" height="50" viewBox="0 0 53 50" fill="none" xmlns="http://www.w3.org/2000/svg">
<path d="M28.5303 26.0303C28.8232 25.7374 28.8232 25.2626 28.5303 24.9697L23.7574 20.1967C23.4645 19.9038 22.9896 19.9038 22.6967 20.1967C22.4038 20.4896 22.4038 20.9645 22.6967 21.2574L26.9393 25.5L22.6967 29.7426C22.4038 30.0355 22.4038 30.5104 22.6967 30.8033C22.9896 31.0962 23.4645 31.0962 23.7574 30.8033L28.5303 26.0303ZM0.5 26.25H28V24.75H0.5V26.25Z" fill="#D8A65D"/>
<path d="M14.4296 36.1113C16.8177 38.8801 20.0131 40.8314 23.567 41.6911C27.1209 42.5507 30.8549 42.2756 34.2444 40.9044C37.634 39.5331 40.5089 37.1346 42.4654 34.0457C44.4219 30.9567 45.3617 27.3326 45.1529 23.6821C44.9441 20.0317 43.5971 16.5383 41.301 13.6927C39.005 10.847 35.8754 8.79201 32.3515 7.81626C28.8277 6.8405 25.0868 6.99301 21.6541 8.25237C18.2214 9.51172 15.2694 11.8147 13.2126 14.8378" stroke="#D8A65D" stroke-width="2"/>
</svg>
